<svg width="400" height="135" viewBox="0 0 400 135" fill="none" xmlns="http://www.w3.org/2000/svg">
<g clip-path="url(#clip0_128_352)">
<path d="M75.3632 1.01601C76.2743 1.8496 76.6584 2.67072 76.7836 3.86942C76.8488 3.87964 76.9141 3.88986 76.9813 3.90038C81.8699 4.67879 86.6851 6.01019 91.1966 8.06834C91.5373 8.22322 91.8797 8.37326 92.2229 8.52244C93.8172 9.2217 95.3442 10.0208 96.8561 10.8827C96.9678 10.9462 97.0794 11.0097 97.1945 11.0751C98.7879 11.9859 100.315 12.9683 101.814 14.0266C101.961 14.1293 102.109 14.232 102.256 14.3346C104.088 15.6156 105.835 17.0066 107.497 18.5006C107.564 18.5608 107.631 18.6211 107.701 18.6831C108.737 19.6168 109.729 20.5967 110.718 21.5793C110.856 21.7164 110.994 21.8533 111.133 21.9901C111.904 22.7534 112.635 23.5233 113.308 24.3764C113.547 24.672 113.798 24.9496 114.057 25.2267C114.833 26.0807 115.512 27.0094 116.203 27.9323C116.309 28.0731 116.309 28.0731 116.418 28.2167C117.413 29.5378 118.355 30.8792 119.226 32.2854C119.283 32.3771 119.34 32.4688 119.399 32.5632C122.19 37.0777 124.471 41.8695 126.119 46.9166C126.156 47.0297 126.193 47.1429 126.232 47.2594C129.511 57.2823 130.295 68.0689 124.667 93.2285C124.623 93.3388 124.578 93.449 124.532 93.5625C122.26 99.0957 119.288 104.355 115.599 109.069C115.455 109.254 115.312 109.44 115.169 109.625C114.812 110.087 114.453 110.547 114.093 111.006C113.925 111.22 113.758 111.436 113.592 111.652C113.506 111.762 113.42 111.872 113.331 111.986C113.26 112.079 113.188 112.171 113.114 112.267C113.056 112.329 112.998 112.391 112.938 112.455C112.859 112.455 112.779 112.455 112.696 112.455C112.665 112.525 112.633 112.596 112.601 112.668C112.446 112.955 112.276 113.153 112.051 113.388C111.972 113.471 111.894 113.554 111.812 113.639C111.73 113.725 111.648 113.81 111.563 113.898C111.073 114.41 110.592 114.917 110.157 115.478C109.682 115.981 109.163 116.435 108.646 116.895C108.236 117.269 107.848 117.662 107.462 118.06C106.858 118.678 106.235 119.242 105.56 119.781C105.226 120.051 104.901 120.328 104.577 120.61C103.829 121.26 103.067 121.878 102.265 122.46C102.027 122.633 101.79 122.807 101.554 122.982C92.0014 129.988 80.6902 133.776 52.9472 134.06C50.5423 133.683 48.1777 133.166 45.8283 132.527C45.6642 132.483 45.6642 132.483 45.4968 132.439C43.0496 131.777 40.6877 130.818 38.4522 129.625C38.3328 129.563 38.2134 129.502 38.0904 129.438C36.8359 128.777 35.5559 128.012 34.5828 126.965C34.5828 126.885 34.5828 126.805 34.5828 126.723C34.6491 126.701 34.7154 126.679 34.7837 126.657C36.8025 126.075 36.8025 126.075 38.5311 124.949C38.6941 124.788 38.6941 124.788 38.9359 124.788C38.9758 124.669 39.0157 124.549 39.0568 124.426C38.9529 124.428 38.849 124.429 38.7419 124.431C36.6862 124.464 34.6707 124.489 32.6481 124.063C32.5047 124.033 32.5047 124.033 32.3583 124.002C26.8679 122.796 22.4504 119.401 18.5308 115.531C18.4557 115.457 18.3806 115.383 18.3032 115.308C18.1223 115.127 17.9481 114.94 17.7751 114.752C17.7751 114.672 17.7751 114.593 17.7751 114.51C17.6953 114.51 17.6155 114.51 17.5333 114.51C17.3622 114.32 17.2 114.122 17.042 113.921C16.679 113.466 16.3106 113.026 15.916 112.598C15.243 111.859 14.6365 111.07 14.0266 110.278C13.9131 110.131 13.7996 109.984 13.686 109.837C13.3956 109.461 13.1059 109.084 12.8174 108.706C12.7463 108.617 12.6753 108.527 12.602 108.435C12.4547 108.222 12.4547 108.222 12.4547 107.981C12.5587 108.009 12.5587 108.009 12.6648 108.039C12.8911 108.101 13.1176 108.163 13.3441 108.224C13.5762 108.287 13.8083 108.35 14.0401 108.414C17.6248 109.405 21.2544 109.805 24.9622 109.394C25.0911 109.38 25.22 109.365 25.3528 109.351C26.2332 109.244 27.0771 109.061 27.9323 108.827C27.8626 108.829 27.7929 108.831 27.7211 108.833C23.3211 108.936 19.3525 108.005 15.4776 105.925C15.4031 105.885 15.3287 105.845 15.2519 105.804C11.439 103.741 8.91279 100.545 6.77146 96.8561C6.71893 96.7657 6.66641 96.6753 6.61228 96.5821C2.50859 89.4665 0.230927 80.8818 0 72.6723C0.0798065 72.6723 0.159613 72.6723 0.241838 72.6723C0.338635 72.8502 0.338635 72.8502 0.437387 73.0318C2.08243 76.0239 4.10898 78.7278 6.52963 81.1367C6.61676 81.228 6.70389 81.3193 6.79366 81.4134C7.5493 82.1966 8.36032 82.8636 9.22639 83.5197C9.41287 83.6616 9.5974 83.8061 9.78168 83.9508C11.8343 85.5413 14.1036 86.8395 16.4903 87.8552C16.5889 87.8972 16.6875 87.9391 16.7891 87.9824C17.3238 88.2087 17.3238 88.2087 17.896 88.2709C17.8326 88.2353 17.7691 88.1998 17.7038 88.1632C15.8308 87.0787 14.0948 85.7552 12.4986 84.298C12.2482 84.0708 11.9939 83.8501 11.7367 83.6306C10.6598 82.6883 9.70448 81.6614 8.82709 80.5321C8.77273 80.4634 8.71837 80.3947 8.66236 80.324C4.05913 74.4959 2.11825 67.3634 2.1312 60.0212C2.13126 59.8804 2.13133 59.7396 2.1314 59.5946C2.13638 57.2651 2.25966 55.017 2.66022 52.7207C2.68613 52.5688 2.71205 52.4169 2.73874 52.2603C3.62651 47.1825 5.17467 42.0413 7.6179 37.4849C7.69069 37.349 7.76348 37.2131 7.83848 37.073C8.00488 36.7658 8.17287 36.4597 8.34341 36.1548C8.42322 36.1947 8.50302 36.2346 8.58525 36.2757C8.6273 36.5606 8.65361 36.834 8.67121 37.1207C8.6844 37.3012 8.69761 37.4817 8.71083 37.6621C8.72071 37.8054 8.72071 37.8054 8.73078 37.9516C9.44942 48.2315 12.7017 56.6098 20.0726 63.8452C19.9159 63.6661 19.9159 63.6661 19.7561 63.4834C17.2969 60.6093 15.5236 57.1619 14.3894 53.5671C14.3464 53.4309 14.3464 53.4309 14.3025 53.2919C11.6377 44.6736 13.2674 35.4299 17.4123 27.5695C18.3075 25.9594 19.3093 24.4316 20.4353 22.9746C20.509 22.8767 20.5828 22.7788 20.6587 22.678C21.1338 22.0536 21.6401 21.4562 22.1501 20.8604C22.3829 20.588 22.6096 20.3176 22.8178 20.0258C22.8695 19.9614 22.9213 19.897 22.9746 19.8307C23.0544 19.8307 23.1342 19.8307 23.2164 19.8307C23.2635 19.7246 23.2635 19.7246 23.3116 19.6164C23.4687 19.3279 23.6384 19.1375 23.8711 18.9064C23.9533 18.8244 24.0354 18.7425 24.12 18.6581C24.2489 18.5315 24.2489 18.5315 24.3803 18.4024C24.5049 18.2779 24.5049 18.2779 24.632 18.1508C25.1889 17.5987 25.7654 17.0765 26.3603 16.5659C26.4769 16.4637 26.5935 16.3614 26.7136 16.2561C29.8892 13.5191 33.4641 11.2409 37.2425 9.42803C37.4935 9.30661 37.7426 9.18181 37.9917 9.05665C40.1098 8.00682 42.346 7.2014 44.5813 6.43894C44.7137 6.39319 44.7137 6.39319 44.8487 6.34651C45.4362 6.15221 45.4362 6.15221 45.7074 6.2878C45.6457 6.36277 45.5839 6.43775 45.5203 6.51499C45.2753 6.81348 45.0311 7.11263 44.7872 7.41208C44.6759 7.54831 44.5644 7.68427 44.4524 7.81995C42.8454 9.76858 41.4428 11.8313 40.1736 14.0141C40.0498 14.2248 39.9218 14.4331 39.7927 14.6407C35.5489 21.5193 34.1458 30.484 35.9129 38.3313C36.4477 40.5192 37.2074 42.6042 38.2104 44.6191C38.266 44.7311 38.266 44.7311 38.3228 44.8453C39.5478 47.2845 41.1627 49.4257 43.0472 51.3906C43.1555 51.5053 43.2638 51.62 43.3754 51.7382C48.3204 56.8501 55.6058 59.4508 62.6167 59.6357C65.9033 59.6871 69.1801 59.2873 72.3644 58.4734C72.4618 58.4486 72.5592 58.4238 72.6596 58.3982C72.7442 58.376 72.8288 58.3537 72.916 58.3308C73.156 58.283 73.156 58.283 73.6397 58.283C73.5978 58.1654 73.5978 58.1654 73.5551 58.0454C71.8941 53.0491 71.8786 47.5196 73.156 42.4426C73.5597 42.7735 73.7336 43.2205 73.9495 43.682C75.0967 46.0426 76.755 48.165 78.8543 49.7506C78.9446 49.819 79.0348 49.8874 79.1278 49.9579C79.891 50.5293 80.6711 51.0379 81.4994 51.5115C81.5767 51.5564 81.654 51.6014 81.7336 51.6476C82.8215 52.2787 83.9286 52.8503 85.0665 53.3857C87.9877 54.7612 90.9331 56.3385 92.8658 59.0085C92.9384 59.1082 93.0111 59.208 93.0859 59.3108C95.4636 62.808 95.7979 67.1622 95.7754 71.2666C95.7748 71.4628 95.7742 71.659 95.7737 71.8552C95.7724 72.3291 95.7704 72.803 95.7678 73.2769C95.4107 72.9313 95.1802 72.6347 94.9592 72.1886C94.601 71.5054 94.1695 70.9225 93.6947 70.3182C93.4704 70.0121 93.4704 70.0121 93.3495 69.6493C93.2298 69.6094 93.11 69.5695 92.9867 69.5284C92.8441 69.3899 92.7021 69.2506 92.564 69.1076C90.238 66.7574 87.0234 65.8058 83.7742 65.7497C76.0512 65.8862 68.727 69.8365 63.1414 74.9707C62.8818 75.208 62.6164 75.4368 62.3489 75.6651C61.9963 75.97 61.7157 76.296 61.4268 76.6626C61.347 76.6626 61.2672 76.6626 61.185 76.6626C61.1563 76.7301 61.1276 76.7976 61.0981 76.8672C60.9072 77.2111 60.6701 77.4581 60.399 77.7434C58.2179 80.0977 56.6678 82.8669 55.26 85.7316C55.2174 85.8172 55.1749 85.9028 55.1311 85.9911C52.5332 91.2965 52.2498 97.6453 54.0719 103.216C54.3468 104.016 54.6676 104.793 55.0181 105.562C55.0839 105.707 55.1497 105.853 55.2175 106.002C56.2263 108.117 57.664 109.898 59.2503 111.608C59.3478 111.716 59.3478 111.716 59.4473 111.825C61.0814 113.549 63.2171 114.851 65.2963 115.961C65.3734 116.003 65.4505 116.045 65.5299 116.087C67.6364 117.216 69.8881 117.993 72.1886 118.622C72.272 118.645 72.3553 118.668 72.4412 118.691C76.0419 119.667 79.8584 119.966 83.555 119.468C83.7337 119.444 83.7337 119.444 83.9161 119.42C88.716 118.765 93.4381 117.269 97.4607 114.51C97.5324 114.461 97.6041 114.413 97.6779 114.362C99.3634 113.204 100.948 111.941 102.418 110.52C102.493 110.448 102.569 110.375 102.646 110.3C103.603 109.372 104.499 108.428 105.32 107.376C105.438 107.231 105.556 107.086 105.675 106.942C106.869 105.48 107.882 103.93 108.827 102.297C108.91 102.155 108.91 102.155 108.995 102.009C112.271 96.3631 113.811 89.924 113.815 83.4266C113.815 83.3027 113.815 83.1788 113.815 83.0512C113.813 81.0996 113.74 79.1966 113.422 77.2672C113.401 77.1379 113.381 77.0085 113.359 76.8753C112.34 70.6879 109.712 63.3427 105.079 58.8876C104.976 58.9225 104.874 58.9574 104.769 58.9934C103.306 59.4722 102.416 59.473 100.967 58.8876C99.9051 58.2882 99.1855 57.3729 98.7908 56.2273C98.4628 54.8869 98.6166 53.5078 99.3217 52.3154C100.063 51.2736 101.046 50.6739 102.297 50.4232C103.654 50.2897 104.898 50.5466 105.978 51.4132C106.929 52.3481 107.373 53.4551 107.497 54.7763C107.461 55.3587 107.364 55.9263 107.165 56.4765C107.036 56.8837 106.948 57.1714 107.129 57.5717C107.324 57.8418 107.532 58.0878 107.754 58.3359C107.913 58.5268 108.072 58.7183 108.23 58.9102C108.31 59.0069 108.39 59.1035 108.473 59.2031C113.714 65.7069 116.27 74.6557 116.235 82.8913C116.233 83.2526 116.235 83.6137 116.236 83.9749C116.238 86.0079 116.101 88.026 115.757 90.0317C115.737 90.15 115.717 90.2682 115.696 90.39C114.678 96.0951 112.477 101.514 109.19 106.288C109.108 106.408 109.108 106.408 109.025 106.53C108.055 107.95 106.951 109.239 105.789 110.505C105.558 110.758 105.558 110.758 105.366 111.037C105.283 111.14 105.283 111.14 105.2 111.245C105.12 111.245 105.04 111.245 104.958 111.245C104.958 111.325 104.958 111.405 104.958 111.487C104.791 111.684 104.791 111.684 104.595 111.85C104.515 111.85 104.435 111.85 104.353 111.85C104.353 111.93 104.353 112.01 104.353 112.092C104.192 112.254 104.192 112.254 103.96 112.447C103.537 112.805 103.131 113.177 102.728 113.558C101.904 114.324 101.012 114.997 100.11 115.668C99.917 115.812 99.7248 115.958 99.5329 116.104C96.7598 118.183 93.6886 119.719 90.4474 120.919C90.3498 120.955 90.2521 120.992 90.1515 121.029C86.3778 122.418 82.3404 123.002 78.3328 123.005C78.1809 123.005 78.1809 123.005 78.0259 123.005C76.2994 123.003 74.6186 122.903 72.9142 122.612C72.7325 122.582 72.7325 122.582 72.5471 122.551C64.6774 121.209 57.8053 117.435 51.8249 112.258C51.654 112.111 51.4818 111.965 51.3093 111.819C51.2214 111.745 51.1335 111.67 51.0429 111.593C50.9684 111.53 50.8939 111.468 50.8172 111.403C50.6651 111.245 50.6651 111.245 50.6651 111.004C50.5853 111.004 50.5054 111.004 50.4232 111.004C50.4232 110.924 50.4232 110.844 50.4232 110.762C50.2636 110.682 50.104 110.602 49.9395 110.52C49.9395 110.44 49.9395 110.36 49.9395 110.278C49.8597 110.278 49.7799 110.278 49.6977 110.278C49.5314 110.113 49.5314 110.113 49.3349 109.878C48.9915 109.472 48.6387 109.08 48.2769 108.691C47.6343 107.986 47.0458 107.246 46.4661 106.488C46.33 106.311 46.1921 106.135 46.0541 105.96C44.0284 103.337 42.3176 100.471 40.8816 97.4872C40.7779 97.2763 40.6713 97.0669 40.5637 96.858C39.9998 95.757 39.522 94.6342 39.0644 93.4855C38.9926 93.3068 38.9207 93.1281 38.8488 92.9494C38.6755 92.5188 38.5032 92.0878 38.3313 91.6566C38.3313 95.1385 40.6597 99.5899 42.2319 102.617C42.4181 102.976 42.5933 103.338 42.7675 103.703C43.1292 104.427 43.5368 105.122 43.9465 105.819C44.0115 105.93 44.0765 106.041 44.1436 106.156C44.5914 106.911 45.0751 107.63 45.5865 108.343C45.7131 108.523 45.8397 108.703 45.9662 108.882C47.0666 110.429 48.2471 111.855 49.5508 113.234C49.8186 113.543 49.8186 113.543 49.9542 113.818C50.0525 114.071 50.0525 114.071 50.4232 114.148C50.5875 114.347 50.7488 114.548 50.9069 114.752C50.9867 114.792 51.0665 114.832 51.1487 114.873C51.1487 114.953 51.1487 115.033 51.1487 115.115C51.2209 115.147 51.2931 115.179 51.3674 115.213C51.6379 115.36 51.7949 115.502 52.0027 115.727C52.5621 116.302 53.1821 116.793 53.8089 117.291C53.907 117.37 53.907 117.37 54.0071 117.45C55.7937 118.882 57.6315 120.132 59.6131 121.282C59.7048 121.335 59.7964 121.389 59.8909 121.444C64.6127 124.196 69.9177 125.833 75.3325 126.481C75.4101 126.491 75.4876 126.501 75.5675 126.512C76.2564 126.596 76.9345 126.622 77.6281 126.622C77.7413 126.623 77.8545 126.623 77.9712 126.624C78.2102 126.624 78.4492 126.625 78.6882 126.625C79.0448 126.625 79.4013 126.627 79.7579 126.629C81.8414 126.636 83.9043 126.507 85.9507 126.096C86.081 126.07 86.2113 126.044 86.3456 126.018C92.9864 124.655 99.0791 121.225 104.353 117.05C104.466 116.96 104.578 116.871 104.695 116.779C105.378 116.229 106.03 115.654 106.665 115.049C107.108 114.631 107.108 114.631 107.376 114.631C107.376 114.551 107.376 114.472 107.376 114.389C107.553 114.214 107.553 114.214 107.799 114.011C108.331 113.558 108.826 113.078 109.318 112.583C109.399 112.503 109.48 112.422 109.563 112.34C110.109 111.793 110.621 111.226 111.125 110.641C111.248 110.501 111.372 110.361 111.496 110.222C112.41 109.185 113.26 108.112 114.09 107.006C114.248 106.798 114.409 106.593 114.572 106.39C118.186 101.85 121.003 96.3663 122.975 90.9311C123.002 90.8555 123.03 90.7798 123.058 90.7019C123.985 88.1494 124.774 85.5959 125.393 82.9504C125.426 82.8108 125.46 82.6712 125.494 82.5274C126.056 80.1505 126.42 77.7537 126.723 75.3325C126.739 75.2038 126.756 75.075 126.772 74.9424C127.685 67.4065 125.89 59.5064 122.749 52.659C122.624 52.3841 122.502 52.1081 122.38 51.8313C120.752 48.1736 118.4 44.7813 115.84 41.7171C115.776 41.6396 115.711 41.5621 115.644 41.4823C114.876 40.5655 114.095 39.6779 113.215 38.8655C113.059 38.6941 113.059 38.6941 113.059 38.4522C112.979 38.4522 112.9 38.4522 112.817 38.4522C112.672 38.3137 112.528 38.174 112.389 38.0293C111.397 37.0047 110.304 36.0742 109.19 35.1874C109.102 35.1142 109.014 35.0409 108.924 34.9654C107.129 33.4808 105.156 32.2409 103.144 31.0762C102.982 30.9811 102.821 30.886 102.66 30.7909C96.7984 27.3729 90.0582 25.4437 83.3132 24.9093C83.2186 24.9005 83.1239 24.8917 83.0264 24.8826C75.3672 24.1686 67.1461 25.7638 60.2169 29.0398C59.9774 29.1408 59.7457 29.2065 59.4921 29.2624C59.4963 29.343 59.5006 29.4236 59.5049 29.5066C59.5444 30.851 59.275 31.9639 58.4039 33.0109C57.4896 33.9724 56.403 34.3579 55.1088 34.5073C53.8619 34.3826 52.6633 33.9478 51.7845 33.0336C50.9541 32.009 50.6012 30.8177 50.6651 29.5042C50.9367 28.0982 51.523 26.9363 52.7207 26.1185C53.9673 25.4999 55.159 25.2975 56.507 25.7255C57.3524 26.0364 57.9643 26.5161 58.6457 27.0859C58.7057 27.058 58.7656 27.0301 58.8274 27.0013C68.4808 22.5308 79.3039 21.2523 97.4187 25.604C98.9839 26.191 100.483 26.8769 101.949 27.6791C102.363 27.9053 102.785 28.1086 103.212 28.3102C106.329 29.8577 109.197 32.0135 111.829 34.2773C112.111 34.5191 112.387 34.7393 112.696 34.9456C112.696 35.0254 112.696 35.1052 112.696 35.1874C112.794 35.2286 112.794 35.2286 112.893 35.2706C113.28 35.4844 113.578 35.736 113.906 36.0339C113.906 36.1137 113.906 36.1935 113.906 36.2757C113.975 36.3056 114.044 36.3356 114.115 36.3664C114.432 36.5409 114.649 36.7451 114.903 37.0012C114.989 37.086 115.074 37.1708 115.162 37.2582C115.357 37.4849 115.357 37.4849 115.357 37.7267C115.476 37.7666 115.596 37.8065 115.719 37.8477C115.902 38.0286 115.902 38.0286 116.097 38.2633C116.417 38.6415 116.744 39.0101 117.08 39.3743C120.312 42.962 122.82 47.1821 124.909 51.5115C124.589 50.1508 124.206 48.8234 123.761 47.4985C123.714 47.3581 123.714 47.3581 123.666 47.2149C121.675 41.284 118.832 35.4424 115.038 30.448C114.865 30.2189 114.694 29.9881 114.524 29.7569C113.89 28.8997 113.24 28.0575 112.568 27.2295C112.469 27.1068 112.469 27.1068 112.367 26.9817C112.025 26.5599 112.025 26.5599 111.648 26.1697C111.487 25.9976 111.487 25.9976 111.487 25.7558C111.408 25.7558 111.328 25.7558 111.245 25.7558C111.075 25.5867 111.075 25.5867 110.875 25.3477C110.76 25.2132 110.76 25.2132 110.643 25.0761C110.563 24.9811 110.482 24.8862 110.399 24.7884C109.708 23.9873 108.977 23.2325 108.23 22.4834C108.092 22.345 108.092 22.345 107.952 22.2038C107.866 22.1176 107.779 22.0314 107.69 21.9426C107.612 21.8648 107.534 21.787 107.454 21.7068C107.262 21.5132 107.262 21.5132 107.013 21.4027C107.013 21.3229 107.013 21.2431 107.013 21.1608C106.948 21.1345 106.883 21.1081 106.816 21.081C106.431 20.863 106.136 20.5663 105.819 20.2615C105.073 19.5581 104.289 18.9242 103.476 18.3011C103.269 18.1413 103.065 17.9785 102.862 17.8143C100.366 15.8024 97.6229 14.0887 94.8005 12.5756C94.6958 12.5189 94.5911 12.4621 94.4833 12.4037C88.8784 9.37402 82.9108 7.46242 76.6626 6.2878C76.5941 6.41499 76.5941 6.41499 76.5242 6.54475C75.8934 7.63209 75.1004 8.40429 73.8966 8.8271C72.5599 9.1512 71.2777 9.01377 70.0985 8.29618C68.9479 7.47893 68.344 6.39906 68.1081 5.02193C67.9666 3.61173 68.4647 2.36664 69.3366 1.27958C69.5284 1.08828 69.5284 1.08828 69.7703 1.08828C69.7703 1.00847 69.7703 0.928667 69.7703 0.846442C71.6315 -0.080663 73.6332 -0.400708 75.3632 1.01601ZM125.03 51.7533C125.151 52.1161 125.151 52.1161 125.151 52.1161L125.03 51.7533ZM37.9686 90.6892C38.0895 90.9311 38.0895 90.9311 38.0895 90.9311L37.9686 90.6892Z" fill="#FE5921"/>
<path d="M156.932 27.9173C157.165 27.9173 157.165 27.9173 157.402 27.9174C157.488 27.9173 157.574 27.9171 157.663 27.917C157.956 27.9167 158.249 27.9172 158.542 27.9178C158.752 27.9177 158.963 27.9176 159.174 27.9174C159.755 27.9172 160.337 27.9177 160.918 27.9183C161.544 27.9188 162.17 27.9186 162.796 27.9185C163.882 27.9185 164.967 27.9188 166.053 27.9195C167.623 27.9205 169.192 27.9208 170.762 27.921C173.308 27.9212 175.854 27.922 178.401 27.9232C180.875 27.9243 183.349 27.9251 185.823 27.9257C186.052 27.9257 186.052 27.9257 186.285 27.9258C187.049 27.9259 187.814 27.9261 188.578 27.9262C194.925 27.9275 201.271 27.9297 207.618 27.9323C207.618 33.3591 207.618 38.786 207.618 44.3773C196.884 44.3773 186.15 44.3773 175.091 44.3773C175.091 49.7243 175.091 55.0714 175.091 60.5804C184.109 60.5804 193.127 60.5804 202.418 60.5804C202.418 65.8078 202.418 71.0351 202.418 76.4208C193.4 76.4208 184.382 76.4208 175.091 76.4208C175.091 86.5163 175.091 96.6119 175.091 107.013C168.946 107.013 162.8 107.013 156.469 107.013C156.467 97.8209 156.467 97.8209 156.466 94.9777C156.466 94.8763 156.466 94.7749 156.466 94.6704C156.465 91.2586 156.465 87.8468 156.464 84.435C156.464 84.3237 156.464 84.2124 156.464 84.0977C156.464 81.6793 156.463 79.2608 156.463 76.8423C156.463 75.6564 156.463 74.4705 156.463 73.2846C156.462 73.1665 156.462 73.0485 156.462 72.9269C156.462 69.0981 156.461 65.2692 156.46 61.4403C156.459 57.5074 156.458 53.5745 156.458 49.6415C156.458 49.0867 156.458 48.5318 156.458 47.977C156.458 47.8678 156.458 47.7586 156.458 47.6461C156.458 45.8845 156.457 44.1229 156.456 42.3613C156.456 40.5925 156.455 38.8238 156.455 37.055C156.456 36.0027 156.455 34.9504 156.455 33.8981C156.454 33.1965 156.454 32.4949 156.454 31.7933C156.455 31.3927 156.455 30.9921 156.454 30.5915C156.454 30.1614 156.454 29.7313 156.454 29.3012C156.454 29.1749 156.454 29.0485 156.453 28.9183C156.454 28.8049 156.454 28.6914 156.454 28.5745C156.454 28.476 156.454 28.3775 156.454 28.276C156.479 27.9045 156.556 27.9338 156.932 27.9173Z" fill="#332694"/>
<path d="M250.665 51.2697C250.793 51.3166 250.793 51.3166 250.923 51.3644C253.677 52.3962 256.101 53.892 258.315 55.8192C258.524 56.0005 258.736 56.1775 258.954 56.3483C264.394 60.7835 266.92 68.4077 267.613 75.1304C267.789 76.986 267.844 78.835 267.851 80.6983C267.852 80.9008 267.852 80.9008 267.852 81.1073C267.85 82.1735 267.781 83.2109 267.715 84.2805C254.666 84.2805 241.618 84.2805 228.174 84.2805C228.745 86.5644 229.33 88.4058 230.908 90.1168C231.076 90.3265 231.076 90.3265 231.076 90.5683C231.156 90.5683 231.236 90.5683 231.318 90.5683C231.453 90.7037 231.588 90.8397 231.721 90.9774C234.401 93.582 237.982 94.6282 241.64 94.6014C245.394 94.5134 249.041 93.2471 251.69 90.5049C252.434 89.7287 252.434 89.7287 253.083 88.8755C253.49 89.0272 253.842 89.1994 254.204 89.438C254.3 89.5014 254.397 89.5647 254.497 89.63C254.599 89.6977 254.701 89.7655 254.807 89.8353C255.024 89.9778 255.241 90.1203 255.458 90.2627C255.621 90.3701 255.621 90.3701 255.787 90.4796C256.257 90.7885 256.73 91.0943 257.202 91.3996C257.288 91.4549 257.373 91.5102 257.461 91.5671C257.908 91.8559 258.355 92.1429 258.804 92.4275C259.42 92.8177 260.03 93.2159 260.641 93.614C261.558 94.2116 262.48 94.7992 263.407 95.3814C264.167 95.8599 264.916 96.3519 265.659 96.8561C265.593 97.3671 265.283 97.707 264.971 98.0955C264.861 98.2351 264.751 98.3748 264.641 98.5145C264.588 98.5821 264.534 98.6498 264.479 98.7194C264.224 99.0466 263.983 99.3844 263.743 99.7227C263.697 99.7743 263.651 99.8259 263.603 99.8791C263.524 99.8791 263.444 99.8791 263.362 99.8791C263.335 99.9447 263.309 100.01 263.282 100.078C263.065 100.459 262.773 100.746 262.462 101.05C262.397 101.115 262.332 101.179 262.265 101.245C261.655 101.84 261.014 102.382 260.339 102.902C260.273 102.953 260.208 103.004 260.141 103.056C258.382 104.423 256.462 105.535 254.414 106.409C254.296 106.46 254.296 106.46 254.177 106.512C251.566 107.645 248.761 108.222 245.949 108.585C245.844 108.599 245.739 108.614 245.631 108.628C237.285 109.715 228.394 107.944 221.627 102.827C215.541 98.1266 212.144 91.7754 211.096 84.188C210.895 82.599 210.853 81.0285 210.852 79.4287C210.852 79.3104 210.852 79.1922 210.852 79.0704C210.854 77.1968 210.922 75.3687 211.245 73.5188C211.267 73.3962 211.288 73.2736 211.31 73.1474C212.109 68.7322 213.704 64.5264 216.445 60.9432C216.531 60.8297 216.616 60.7162 216.704 60.5993C217.336 59.7856 218.033 59.0289 218.742 58.283C218.808 58.2143 218.873 58.1456 218.94 58.0748C219.933 57.0367 220.968 56.1075 222.128 55.26C222.193 55.2122 222.259 55.1644 222.326 55.1152C230.266 49.3546 241.448 47.878 250.665 51.2697ZM231.333 65.9538C229.477 67.8996 228.441 70.1236 228.174 72.7932C235.756 72.7932 243.337 72.7932 251.149 72.7932C251.149 70.0186 250.351 67.5147 248.489 65.4172C248.381 65.2928 248.381 65.2928 248.272 65.1659C246.45 63.1929 243.773 62.4314 241.161 62.2823C237.452 62.1535 234.01 63.3692 231.333 65.9538Z" fill="#332694"/>
<path d="M336.276 51.3906C339.002 51.3595 341.729 51.336 344.455 51.3217C345.721 51.3148 346.987 51.3055 348.253 51.2902C349.357 51.277 350.46 51.2684 351.564 51.2654C352.148 51.2637 352.733 51.2596 353.317 51.2499C353.867 51.2409 354.417 51.2381 354.967 51.2401C355.169 51.2398 355.371 51.2371 355.572 51.232C357.093 51.1954 357.093 51.1954 357.642 51.677C357.891 52.0147 358.089 52.3494 358.283 52.7207C358.411 52.9105 358.541 53.099 358.675 53.2851C358.799 53.4672 358.923 53.6493 359.046 53.8316C359.183 54.0319 359.319 54.2322 359.456 54.4324C359.556 54.5802 359.556 54.5802 359.659 54.731C359.95 55.1575 360.242 55.5829 360.535 56.0082C360.589 56.0868 360.643 56.1654 360.699 56.2464C360.861 56.4819 361.023 56.7174 361.185 56.9528C362.02 58.1669 362.854 59.3822 363.686 60.5988C363.949 60.9836 364.213 61.3681 364.477 61.7523C365.448 63.1669 366.403 64.5918 367.352 66.0218C368.192 64.984 368.95 63.8844 369.71 62.7872C369.878 62.5442 370.047 62.3013 370.216 62.0584C370.301 61.9348 370.387 61.8112 370.475 61.6839C370.907 61.0612 371.34 60.4392 371.773 59.8171C371.851 59.7055 371.928 59.5938 372.008 59.4788C372.645 58.5632 373.284 57.6495 373.925 56.7365C374.69 55.6459 375.451 54.5532 376.204 53.4542C376.254 53.3853 376.303 53.3165 376.354 53.2455C376.556 52.9523 376.556 52.9523 376.742 52.5769C377.369 51.4783 377.369 51.4783 378.056 51.2475C378.586 51.1968 379.097 51.1957 379.629 51.2121C379.831 51.2126 380.032 51.2123 380.234 51.2114C380.778 51.211 381.322 51.2202 381.867 51.2312C382.437 51.241 383.006 51.2419 383.576 51.2438C384.654 51.2487 385.732 51.2616 386.81 51.2774C388.037 51.295 389.265 51.3036 390.493 51.3115C393.017 51.3279 395.541 51.3555 398.065 51.3906C397.756 51.9398 397.445 52.4365 397.053 52.9323C396.542 53.5841 396.046 54.2452 395.556 54.9123C395.449 55.0583 395.449 55.0583 395.34 55.2071C395.047 55.6048 394.756 56.0027 394.464 56.4007C393.645 57.5178 392.819 58.628 391.973 59.7254C391.515 60.3226 391.074 60.9299 390.64 61.5449C390.26 62.0821 389.862 62.6041 389.458 63.1238C389.013 63.6989 388.582 64.2845 388.153 64.8722C387.82 65.3284 387.485 65.7822 387.145 66.2334C386.683 66.8478 386.225 67.4658 385.769 68.085C385.697 68.1831 385.625 68.2813 385.55 68.3825C385.189 68.8732 384.828 69.3642 384.468 69.8558C383.72 70.8755 382.964 71.8874 382.195 72.8915C381.562 73.7173 380.945 74.5502 380.346 75.4001C379.781 76.1966 379.186 76.9719 378.597 77.7509C378.755 78.0817 378.928 78.3764 379.143 78.6729C379.204 78.7571 379.264 78.8412 379.327 78.928C379.393 79.0184 379.459 79.1088 379.527 79.2019C379.596 79.2974 379.665 79.3929 379.737 79.4913C380.33 80.306 380.934 81.1126 381.54 81.9178C382.613 83.3438 383.67 84.7808 384.711 86.2304C385.298 87.0471 385.902 87.8492 386.515 88.646C386.94 89.1984 387.356 89.7563 387.763 90.3218C388.116 90.8092 388.473 91.2933 388.83 91.7775C388.903 91.876 388.975 91.9745 389.05 92.076C389.2 92.2786 389.349 92.4813 389.499 92.6839C389.785 93.0727 390.072 93.4616 390.358 93.8505C390.499 94.0408 390.639 94.2312 390.779 94.4216C391.135 94.9046 391.491 95.3878 391.846 95.8713C392.505 96.7667 393.165 97.6607 393.833 98.549C394.574 99.5345 395.306 100.527 396.036 101.521C396.319 101.906 396.603 102.291 396.887 102.677C397.027 102.866 397.167 103.056 397.307 103.246C397.675 103.746 398.044 104.246 398.414 104.745C398.491 104.849 398.568 104.953 398.647 105.06C398.795 105.259 398.942 105.457 399.09 105.656C399.189 105.79 399.189 105.79 399.291 105.928C399.349 106.006 399.408 106.085 399.468 106.166C399.659 106.44 399.829 106.725 400 107.013C397.242 107.044 394.484 107.068 391.726 107.082C390.445 107.089 389.164 107.098 387.884 107.114C386.767 107.127 385.651 107.135 384.535 107.138C383.944 107.14 383.353 107.144 382.762 107.154C382.205 107.163 381.649 107.166 381.092 107.164C380.888 107.164 380.684 107.167 380.48 107.172C378.942 107.209 378.942 107.209 378.39 106.726C378.141 106.389 377.944 106.055 377.751 105.683C377.626 105.498 377.498 105.313 377.368 105.132C377.246 104.953 377.124 104.774 377.003 104.595C376.866 104.394 376.729 104.193 376.592 103.993C376.524 103.892 376.455 103.791 376.384 103.687C376.06 103.211 375.734 102.735 375.408 102.26C374.996 101.657 374.584 101.054 374.173 100.45C373.379 99.283 372.581 98.1196 371.773 96.9619C371.226 96.1774 370.682 95.3916 370.156 94.5931C369.767 94.0094 369.372 93.4301 368.977 92.8507C368.901 92.7395 368.825 92.6284 368.747 92.5139C368.636 92.3509 368.636 92.3509 368.523 92.1847C368.45 92.0777 368.377 91.9707 368.302 91.8605C368.002 91.4258 367.694 90.9967 367.384 90.5684C367.231 90.3265 367.231 90.3265 367.231 90.0846C367.151 90.0846 367.071 90.0846 366.989 90.0846C366.964 90.1638 366.939 90.243 366.913 90.3246C366.684 90.8283 366.365 91.2439 366.037 91.6868C365.894 91.8825 365.751 92.0782 365.608 92.2739C365.535 92.3728 365.463 92.4717 365.388 92.5736C365.068 93.0129 364.755 93.4566 364.442 93.9012C364.353 94.0279 364.353 94.0279 364.262 94.1571C364.142 94.3274 364.022 94.4977 363.903 94.668C363.726 94.9196 363.548 95.1709 363.371 95.4221C362.715 96.3492 362.062 97.2782 361.412 98.2089C360.89 98.9558 360.365 99.7002 359.833 100.44C359.4 101.046 358.974 101.656 358.547 102.267C356.997 104.488 356.997 104.488 356.308 105.395C356.097 105.683 356.097 105.683 355.929 106.02C355.604 106.583 355.36 106.95 354.717 107.134C354.182 107.195 353.647 107.178 353.109 107.164C352.903 107.164 352.696 107.164 352.49 107.165C351.932 107.165 351.375 107.157 350.817 107.148C350.233 107.14 349.649 107.139 349.066 107.137C347.961 107.133 346.857 107.122 345.752 107.109C344.495 107.094 343.237 107.087 341.979 107.08C339.393 107.066 336.806 107.043 334.22 107.013C334.39 106.57 334.564 106.251 334.87 105.887C335.296 105.367 335.707 104.839 336.109 104.3C336.201 104.177 336.201 104.177 336.295 104.052C336.695 103.516 337.092 102.978 337.487 102.439C338.243 101.41 339.01 100.391 339.785 99.3778C340.404 98.5686 341.01 97.751 341.612 96.9296C342.009 96.389 342.41 95.8523 342.82 95.322C343.8 94.0569 344.753 92.7724 345.7 91.4828C346.308 90.6549 346.926 89.8351 347.551 89.0204C348.529 87.7467 349.488 86.4589 350.438 85.1648C351.009 84.3879 351.588 83.619 352.178 82.8569C352.707 82.1726 353.222 81.4778 353.74 80.785C353.936 80.5244 354.131 80.2644 354.328 80.0044C354.393 79.9181 354.458 79.8318 354.525 79.7429C354.648 79.5787 354.772 79.4146 354.896 79.2507C355.235 78.8004 355.557 78.3439 355.865 77.8718C355.814 77.8063 355.764 77.7408 355.712 77.6733C354.768 76.4434 353.833 75.2089 352.931 73.9477C352.412 73.2253 351.876 72.5186 351.333 71.8142C350.902 71.254 350.482 70.6873 350.068 70.1137C349.763 69.6936 349.451 69.2784 349.138 68.8634C348.595 68.141 348.057 67.4152 347.521 66.6868C347.001 65.9788 346.478 65.2729 345.949 64.5707C345.428 63.8786 344.913 63.1829 344.4 62.4849C343.737 61.583 343.067 60.6864 342.395 59.7919C341.885 59.1133 341.38 58.4309 340.878 57.7464C340.27 56.9178 339.651 56.0985 339.027 55.2827C338.291 54.3213 337.576 53.3486 336.88 52.3579C336.798 52.2442 336.798 52.2442 336.714 52.1283C336.276 51.5238 336.276 51.5238 336.276 51.3906Z" fill="#332694"/>
<path d="M277.993 22.37C284.138 22.37 290.283 22.37 296.614 22.37C296.614 50.3023 296.614 78.2346 296.614 107.013C290.469 107.013 284.324 107.013 277.993 107.013C277.993 79.081 277.993 51.1487 277.993 22.37Z" fill="#332694"/>
<path d="M309.311 51.3906C315.296 51.3906 321.282 51.3906 327.449 51.3906C327.449 69.7461 327.449 88.1016 327.449 107.013C321.463 107.013 315.478 107.013 309.311 107.013C309.311 88.6578 309.311 70.3023 309.311 51.3906Z" fill="#332694"/>
<path d="M324.38 24.2216C324.558 24.3687 324.734 24.5174 324.909 24.6675C325.006 24.7454 325.103 24.8233 325.203 24.9036C327.226 26.6027 328.397 29.0499 328.749 31.643C328.762 31.8166 328.772 31.9905 328.779 32.1644C328.784 32.2817 328.788 32.3989 328.793 32.5196C328.85 35.3138 328.083 37.9525 326.14 40.002C326.053 40.0891 325.966 40.1762 325.877 40.266C325.729 40.4159 325.729 40.4159 325.579 40.5688C323.458 42.6537 320.993 43.4477 318.071 43.4477C315.735 43.4168 313.618 42.6697 311.85 41.1124C311.754 41.0348 311.658 40.9572 311.559 40.8772C309.659 39.2856 308.404 36.9192 308.102 34.4619C307.995 32.2466 308.104 30.3221 309.069 28.295C309.118 28.1873 309.167 28.0796 309.218 27.9686C310.334 25.7207 312.469 23.8468 314.795 22.9368C317.97 21.9051 321.655 22.1522 324.38 24.2216Z" fill="#FF8A26"/>
<path d="M8.34339 36.1548C8.4232 36.1947 8.50301 36.2346 8.58523 36.2757C8.62728 36.5606 8.65359 36.834 8.6712 37.1207C8.68439 37.3012 8.69759 37.4817 8.71082 37.6621C8.72069 37.8054 8.72069 37.8054 8.73076 37.9516C9.43583 48.0374 12.5598 56.4135 19.7825 63.5514C20.1146 63.8879 20.4251 64.2373 20.7286 64.5996C20.9196 64.8133 21.1244 64.9895 21.3422 65.1753C21.6445 65.5381 21.6445 65.5381 21.6164 65.9684C21.5874 66.1478 21.5563 66.3268 21.5236 66.5055C21.5079 66.5982 21.4922 66.6909 21.476 66.7865C21.4222 67.0987 21.3652 67.4102 21.3077 67.7217C21.2863 67.8386 21.2649 67.9554 21.2429 68.0758C21.173 68.4568 21.1027 68.8377 21.0323 69.2186C21.0084 69.3484 20.9845 69.4783 20.9599 69.6121C20.4819 72.208 19.9809 74.799 19.4679 77.3882C18.961 77.0673 18.5385 76.7327 18.11 76.3084C18.0243 76.2237 18.0243 76.2237 17.9369 76.1373C17.7536 75.9555 17.5715 75.7727 17.3896 75.5895C17.3273 75.5269 17.2649 75.4643 17.2006 75.3998C16.3316 74.5256 15.4957 73.6453 14.7798 72.6391C14.6151 72.4079 14.4463 72.1801 14.2774 71.952C13.4315 70.7961 12.692 69.5938 11.9972 68.3419C11.8663 68.1066 11.733 67.8729 11.5988 67.6395C10.2093 65.1515 9.27479 62.4566 8.46431 59.734C8.42237 59.5937 8.38043 59.4534 8.33722 59.3089C8.07285 58.4066 7.85016 57.5054 7.67078 56.5825C7.6326 56.3881 7.6326 56.3881 7.59364 56.1897C7.37571 55.0574 7.19216 53.9232 7.0506 52.7789C7.02653 52.5853 7.00141 52.3919 6.97503 52.1986C6.3591 47.6396 6.77002 42.9248 7.7388 38.4522C7.75819 38.3613 7.77757 38.2704 7.79755 38.1767C7.94544 37.4874 8.11421 36.8219 8.34339 36.1548Z" fill="#FFC533"/>
<path d="M0.241821 73.156C0.604578 73.2769 0.604578 73.2769 0.756199 73.5159C0.834525 73.6744 0.834525 73.6744 0.914433 73.8361C2.33822 76.5565 4.36245 78.98 6.52961 81.1366C6.61674 81.228 6.70387 81.3193 6.79365 81.4134C7.54928 82.1966 8.3603 82.8636 9.22637 83.5197C9.41285 83.6616 9.59738 83.8061 9.78167 83.9508C12.3037 85.905 15.2102 87.5451 18.2587 88.5127C18.2587 88.5925 18.2587 88.6723 18.2587 88.7545C18.4134 88.772 18.568 88.7894 18.7273 88.8074C19.0153 88.8399 19.2073 88.866 19.4679 88.9964C19.5191 89.2891 19.5539 89.5711 19.5804 89.8664C19.5894 89.9582 19.5985 90.05 19.6079 90.1446C19.638 90.452 19.6663 90.7595 19.6947 91.0671C19.7153 91.2823 19.736 91.4975 19.7567 91.7127C19.9865 94.1215 20.1888 96.5329 20.3878 98.9444C20.4162 99.2889 20.4455 99.6333 20.4755 99.9777C20.4865 100.105 20.4976 100.232 20.509 100.363C20.5181 100.466 20.5273 100.568 20.5367 100.674C20.57 101.175 20.5662 101.675 20.5562 102.177C18.3415 101.528 16.1534 99.5087 14.5103 97.9444C14.3424 97.7947 14.1736 97.646 14.0039 97.4985C13.9275 97.4318 13.8512 97.3651 13.7725 97.2963C13.6153 97.1605 13.4572 97.0258 13.2982 96.892C12.7978 96.4664 12.36 96.022 11.9355 95.5208C11.7397 95.2963 11.5355 95.0902 11.321 94.8836C10.8263 94.3944 10.3929 93.8617 9.96086 93.317C9.84305 93.1688 9.72462 93.0211 9.60578 92.8737C5.72472 88.0567 0.241821 79.6606 0.241821 73.156Z" fill="#FFC533"/>
<path d="M12.4547 107.981C12.524 108 12.5934 108.019 12.6648 108.039C12.8911 108.101 13.1176 108.163 13.3441 108.224C13.5762 108.287 13.8083 108.35 14.0401 108.414C18.4989 109.647 23.4791 110.177 27.9734 108.799C28.295 108.706 28.295 108.706 28.6578 108.706C30.114 113.757 30.114 113.757 30.5623 115.478C30.6057 115.644 30.6057 115.644 30.6499 115.813C30.8343 116.533 30.8343 116.533 30.8343 116.808C29.6822 116.732 28.5839 116.476 27.4637 116.211C27.3626 116.187 27.2616 116.163 27.1574 116.138C22.2256 114.963 17.5595 112.896 13.8575 109.361C13.4733 109.004 13.0657 108.692 12.6417 108.385C12.5491 108.304 12.5491 108.304 12.4547 108.222C12.4547 108.143 12.4547 108.063 12.4547 107.981Z" fill="#FFC433"/>
<path d="M105.729 51.2139C106.744 52.0276 107.224 53.09 107.456 54.3493C107.552 55.3588 107.282 56.2731 106.892 57.1947C106.813 57.1947 106.733 57.1947 106.651 57.1947C106.621 57.262 106.591 57.3294 106.56 57.3987C106.1 58.2488 105.402 58.7932 104.504 59.1351C103.207 59.5171 102.218 59.393 100.967 58.8876C99.9051 58.2882 99.1855 57.3729 98.7908 56.2273C98.4628 54.8869 98.6166 53.5078 99.3217 52.3154C100.821 50.2083 103.587 49.8302 105.729 51.2139Z" fill="#332693"/>
<path d="M57.6028 26.2167C58.3063 26.803 58.7757 27.4524 59.1294 28.295C59.1839 28.4241 59.1839 28.4241 59.2395 28.5558C59.6703 29.6941 59.5671 30.7971 59.1294 31.9226C58.5661 33.0082 57.7321 33.7794 56.5901 34.2201C55.2346 34.6321 54.0329 34.4551 52.7656 33.8186C51.7294 33.1769 51.1086 32.2443 50.786 31.0762C50.5251 29.7532 50.7568 28.5755 51.4208 27.4033C52.8862 25.292 55.4501 25.0607 57.6028 26.2167Z" fill="#332693"/>
<path d="M75.3632 1.01601C76.1276 1.71543 76.749 2.64759 76.8081 3.70315C76.8353 5.20054 76.7432 6.56963 75.6953 7.73882C74.6261 8.68794 73.5135 9.02838 72.097 8.99005C70.8577 8.85716 69.93 8.27321 69.075 7.39874C68.3275 6.33989 67.9555 5.1124 68.1341 3.81746C68.3521 2.76279 68.7575 1.85728 69.5284 1.08828C69.6082 1.08828 69.688 1.08828 69.7703 1.08828C69.7703 1.00847 69.7703 0.928667 69.7703 0.846442C71.6315 -0.080663 73.6332 -0.400708 75.3632 1.01601Z" fill="#332693"/>
<path d="M328.748 121.388C328.838 121.472 328.928 121.557 329.021 121.644C328.843 122.049 328.617 122.333 328.31 122.65C328.228 122.736 328.146 122.823 328.062 122.913C327.811 123.096 327.811 123.096 327.538 123.063C327.469 123.034 327.399 123.005 327.328 122.975C327.328 122.895 327.328 122.815 327.328 122.733C327.223 122.681 327.223 122.681 327.116 122.628C326.947 122.543 326.779 122.454 326.614 122.362C325.725 121.901 324.793 121.823 323.831 122.114C323.347 122.33 322.956 122.558 322.657 123.005C322.405 123.691 322.404 124.23 322.597 124.932C323.251 125.797 324.274 126.086 325.265 126.421C326.673 126.897 327.925 127.366 328.779 128.658C329.275 129.678 329.285 130.867 329.005 131.953C328.617 133.07 327.864 133.77 326.844 134.341C325.251 135.036 323.444 134.933 321.849 134.311C320.968 133.915 320.305 133.502 319.831 132.648C320.021 132.468 320.213 132.29 320.405 132.112C320.512 132.012 320.618 131.912 320.728 131.81C321.014 131.58 321.167 131.485 321.524 131.439C321.613 131.57 321.613 131.57 321.705 131.703C322.342 132.42 323.148 132.828 324.109 132.916C324.972 132.948 325.614 132.775 326.338 132.308C326.792 131.854 326.985 131.426 327.018 130.789C326.987 130.187 326.898 129.716 326.481 129.262C325.555 128.649 324.51 128.31 323.466 127.956C322.209 127.521 321.146 126.893 320.511 125.68C320.219 124.572 320.165 123.368 320.704 122.327C321.412 121.201 322.301 120.536 323.594 120.223C325.459 119.888 327.248 120.163 328.748 121.388Z" fill="#FF8A26"/>
<path d="M339.425 125.945C340.545 126.973 340.911 128.264 341.029 129.731C340.974 131.244 340.427 132.546 339.336 133.6C338.185 134.534 336.754 134.807 335.308 134.704C334.39 134.557 333.631 134.301 332.89 133.736C332.778 133.654 332.778 133.654 332.664 133.57C331.781 132.873 331.254 131.944 331.076 130.834C330.936 129.214 331.02 127.758 332.09 126.454C334.025 124.332 337.185 124.232 339.425 125.945ZM333.525 127.707C332.95 128.562 332.903 129.46 333.011 130.472C333.246 131.427 333.737 132.182 334.537 132.754C335.328 133.128 336.31 133.144 337.145 132.898C337.892 132.572 338.48 131.845 338.815 131.114C339.133 130.071 339.05 128.917 338.588 127.938C338.184 127.2 337.68 126.752 336.88 126.481C335.409 126.284 334.442 126.54 333.525 127.707Z" fill="#FF8A26"/>
<path d="M378.602 125.94C379.643 126.878 380.049 128.16 380.155 129.517C380.199 130.95 379.786 132.236 378.806 133.302C377.649 134.37 376.316 134.755 374.763 134.737C373.43 134.625 372.224 134.083 371.312 133.102C370.184 131.691 370.107 130.152 370.254 128.416C370.497 127.295 371.179 126.254 372.15 125.624C374.253 124.4 376.64 124.471 378.602 125.94ZM372.938 127.343C372.235 128.338 372.077 129.268 372.189 130.472C372.43 131.503 373.007 132.327 373.904 132.89C374.709 133.101 375.477 133.111 376.277 132.875C377.192 132.337 377.743 131.754 378.063 130.73C378.269 129.678 378.185 128.617 377.63 127.69C377.099 127.01 376.506 126.54 375.629 126.425C374.523 126.415 373.683 126.465 372.938 127.343Z" fill="#FF8A26"/>
<path d="M303.99 120.435C307.542 120.435 311.093 120.435 314.752 120.435C314.752 121.034 314.752 121.632 314.752 122.249C313.316 122.249 311.879 122.249 310.399 122.249C310.399 126.279 310.399 130.31 310.399 134.462C309.761 134.462 309.122 134.462 308.464 134.462C308.229 134.227 308.329 133.871 308.328 133.559C308.329 133.39 308.329 133.39 308.33 133.217C308.33 133.099 308.33 132.981 308.33 132.86C308.33 132.468 308.331 132.076 308.332 131.684C308.332 131.413 308.332 131.142 308.332 130.871C308.333 130.157 308.334 129.442 308.335 128.727C308.336 127.999 308.337 127.27 308.338 126.541C308.339 125.111 308.341 123.68 308.343 122.249C306.907 122.249 305.47 122.249 303.99 122.249C303.99 121.651 303.99 121.052 303.99 120.435Z" fill="#FF8A26"/>
<path d="M348.247 125.03C348.885 125.03 349.524 125.03 350.181 125.03C350.183 125.212 350.185 125.394 350.187 125.581C350.194 126.258 350.203 126.935 350.213 127.612C350.217 127.904 350.22 128.197 350.223 128.489C350.227 128.911 350.234 129.332 350.24 129.754C350.241 129.884 350.242 130.013 350.243 130.147C350.261 131.068 350.35 131.795 350.967 132.52C351.458 132.925 351.909 132.94 352.523 132.931C353.053 132.863 353.426 132.655 353.809 132.285C354.206 131.694 354.426 131.082 354.438 130.37C354.441 130.252 354.443 130.133 354.446 130.011C354.448 129.883 354.45 129.755 354.452 129.624C354.454 129.493 354.457 129.362 354.459 129.227C354.467 128.808 354.474 128.389 354.482 127.97C354.487 127.686 354.492 127.402 354.497 127.119C354.51 126.423 354.523 125.726 354.534 125.03C355.173 125.03 355.811 125.03 356.469 125.03C356.509 128.143 356.549 131.255 356.59 134.462C355.992 134.462 355.393 134.462 354.776 134.462C354.657 133.863 354.657 133.863 354.534 133.253C354.46 133.36 354.385 133.467 354.308 133.578C353.757 134.244 352.848 134.642 351.994 134.728C350.902 134.752 349.988 134.514 349.185 133.748C348.506 132.938 348.231 132.045 348.233 131.002C348.233 130.869 348.233 130.735 348.233 130.598C348.234 130.456 348.234 130.314 348.235 130.167C348.235 130.02 348.235 129.873 348.235 129.722C348.236 129.254 348.238 128.786 348.239 128.318C348.24 128 348.24 127.682 348.241 127.365C348.242 126.587 348.244 125.808 348.247 125.03Z" fill="#FF8A26"/>
<path d="M389.36 125.294C390.078 125.843 390.511 126.691 390.689 127.57C390.7 127.799 390.703 128.028 390.703 128.257C390.703 128.464 390.703 128.464 390.703 128.675C390.702 128.823 390.702 128.972 390.701 129.124C390.701 129.277 390.701 129.429 390.701 129.586C390.7 129.99 390.699 130.394 390.698 130.798C390.696 131.21 390.696 131.623 390.695 132.036C390.694 132.844 390.692 133.653 390.689 134.462C390.091 134.462 389.492 134.462 388.875 134.462C388.872 134.225 388.872 134.225 388.868 133.984C388.859 133.392 388.848 132.801 388.837 132.21C388.832 131.955 388.828 131.701 388.824 131.446C388.819 131.077 388.812 130.709 388.805 130.341C388.803 130.229 388.802 130.116 388.8 130.001C388.766 128.368 388.766 128.368 388.029 126.965C387.55 126.529 387.035 126.541 386.415 126.56C385.824 126.638 385.511 126.943 385.104 127.35C384.544 128.22 384.467 129.115 384.46 130.128C384.458 130.253 384.456 130.377 384.454 130.506C384.447 130.9 384.443 131.294 384.439 131.688C384.435 131.957 384.431 132.226 384.427 132.495C384.416 133.151 384.408 133.806 384.401 134.462C383.763 134.462 383.125 134.462 382.467 134.462C382.467 131.349 382.467 128.237 382.467 125.03C383.065 125.03 383.664 125.03 384.281 125.03C384.32 125.429 384.36 125.828 384.401 126.239C384.461 126.152 384.521 126.065 384.583 125.975C385.786 124.621 387.809 124.38 389.36 125.294Z" fill="#FF8A26"/>
<path d="M399.637 125.877C399.717 125.956 399.797 126.036 399.879 126.119C399.857 126.459 399.772 126.588 399.535 126.835C399.446 126.908 399.358 126.98 399.267 127.056C399.134 127.167 399.134 127.167 398.998 127.28C398.93 127.336 398.861 127.391 398.791 127.449C398.493 127.307 398.27 127.176 398.012 126.965C397.348 126.446 396.712 126.393 395.889 126.481C395.362 126.667 395.362 126.667 395.042 127.086C394.951 127.494 394.951 127.494 395.042 127.932C395.697 128.517 396.476 128.685 397.304 128.915C398.367 129.216 399.271 129.622 399.879 130.593C400.15 131.39 400.109 132.39 399.769 133.159C399.211 134.066 398.202 134.431 397.211 134.674C395.69 134.803 394.356 134.541 393.108 133.615C392.943 133.458 392.781 133.297 392.624 133.132C392.798 132.722 393.013 132.484 393.349 132.195C393.477 132.083 393.477 132.083 393.606 131.97C393.833 131.802 393.833 131.802 394.075 131.802C394.162 131.891 394.25 131.981 394.339 132.074C394.983 132.703 395.544 132.964 396.432 133.024C397.014 132.999 397.526 132.824 397.944 132.406C397.997 132.156 397.997 132.156 397.997 131.877C398.002 131.784 398.007 131.691 398.012 131.595C397.907 131.163 397.718 131.066 397.34 130.834C396.797 130.629 396.238 130.477 395.681 130.318C394.628 130.004 393.774 129.662 393.229 128.658C392.969 127.879 393.01 127.076 393.334 126.323C393.782 125.524 394.539 125.122 395.398 124.864C396.962 124.559 398.39 124.892 399.637 125.877Z" fill="#FF8A26"/>
<path d="M359.734 122.37C360.372 122.37 361.011 122.37 361.669 122.37C361.669 123.248 361.669 124.126 361.669 125.03C362.467 125.03 363.265 125.03 364.087 125.03C364.087 125.549 364.087 126.068 364.087 126.602C363.289 126.602 362.491 126.602 361.669 126.602C361.68 127.386 361.693 128.169 361.707 128.952C361.712 129.219 361.716 129.485 361.72 129.752C361.725 130.135 361.732 130.517 361.74 130.9C361.741 131.02 361.742 131.139 361.744 131.262C361.746 131.373 361.749 131.484 361.751 131.599C361.753 131.697 361.754 131.794 361.756 131.895C361.794 132.201 361.859 132.392 362.031 132.648C362.732 132.902 363.239 132.899 363.966 132.769C364.026 133.547 364.026 133.547 364.087 134.341C363.185 134.669 362.174 134.746 361.253 134.439C360.535 134.074 360.163 133.63 359.855 132.89C359.758 132.485 359.719 132.111 359.72 131.695C359.72 131.581 359.72 131.468 359.72 131.35C359.721 131.229 359.722 131.108 359.722 130.983C359.722 130.858 359.723 130.733 359.723 130.603C359.723 130.204 359.725 129.805 359.726 129.406C359.727 129.135 359.728 128.864 359.728 128.593C359.729 127.929 359.731 127.266 359.734 126.602C359.175 126.602 358.617 126.602 358.041 126.602C358.041 126.083 358.041 125.565 358.041 125.03C358.6 125.03 359.158 125.03 359.734 125.03C359.734 124.152 359.734 123.274 359.734 122.37Z" fill="#FF8A26"/>
<path d="M343.41 119.589C344.048 119.589 344.687 119.589 345.345 119.589C345.347 121.51 345.35 123.432 345.351 125.353C345.352 126.245 345.352 127.137 345.354 128.029C345.355 128.806 345.356 129.584 345.356 130.361C345.356 130.773 345.357 131.184 345.357 131.596C345.358 132.055 345.358 132.514 345.358 132.973C345.359 133.111 345.359 133.248 345.36 133.39C345.359 133.514 345.359 133.638 345.359 133.766C345.359 133.875 345.359 133.984 345.359 134.096C345.345 134.341 345.345 134.341 345.224 134.462C344.625 134.462 344.027 134.462 343.41 134.462C343.41 129.554 343.41 124.646 343.41 119.589Z" fill="#FF8A26"/>
<path d="M300.363 120.435C301.001 120.435 301.64 120.435 302.297 120.435C302.297 125.064 302.297 129.693 302.297 134.462C301.659 134.462 301.021 134.462 300.363 134.462C300.363 129.833 300.363 125.204 300.363 120.435Z" fill="#FF8A26"/>
<path d="M365.78 125.03C366.418 125.03 367.057 125.03 367.715 125.03C367.715 128.143 367.715 131.255 367.715 134.462C367.116 134.462 366.518 134.462 365.901 134.462C365.697 134.258 365.765 134.007 365.765 133.735C365.765 133.648 365.766 133.562 365.766 133.473C365.766 133.382 365.766 133.291 365.766 133.197C365.766 132.896 365.767 132.594 365.768 132.292C365.768 132.084 365.769 131.875 365.769 131.667C365.769 131.117 365.77 130.567 365.772 130.017C365.773 129.456 365.773 128.895 365.774 128.334C365.775 127.233 365.777 126.131 365.78 125.03Z" fill="#FF8A26"/>
<path d="M81.1367 55.8646C83.1448 55.7253 85.2149 56.2977 86.8198 57.5348C87.3766 58.0576 87.7889 58.7717 88.029 59.4921C88.0338 59.7742 88.0344 60.0565 88.029 60.3386C87.2785 60.5888 86.3951 60.576 85.656 60.2857C84.5844 59.7324 83.8031 58.7918 83.0723 57.8574C82.8356 57.5529 82.8356 57.5529 82.5565 57.2915C82.3458 57.0738 82.3458 57.0738 82.3458 56.8319C82.281 56.802 82.2162 56.7721 82.1494 56.7412C81.7917 56.553 81.4635 56.3441 81.1367 56.1064C81.1367 56.0266 81.1367 55.9468 81.1367 55.8646Z" fill="#382690"/>
<path d="M367.352 120.556C367.8 120.864 367.928 121.063 368.077 121.584C368.077 122.168 367.899 122.421 367.503 122.831C367.11 123.039 366.823 123.021 366.385 122.975C366.039 122.821 365.843 122.698 365.621 122.393C365.508 122.034 365.493 121.778 365.538 121.403C366.009 120.571 366.423 120.417 367.352 120.556Z" fill="#FF8A26"/>
<path d="M45.4655 6.16687C45.5453 6.20677 45.6251 6.24668 45.7074 6.28779C45.3881 6.68682 45.0689 7.08585 44.74 7.49698C44.7001 7.37727 44.6602 7.25756 44.6191 7.13422C44.731 6.91789 44.731 6.91789 44.8987 6.69589C44.9531 6.62201 45.0075 6.54812 45.0636 6.472C45.2237 6.28779 45.2237 6.28779 45.4655 6.16687Z" fill="#FFD437"/>
<path d="M0.241821 73.156C0.361531 73.1959 0.481241 73.2358 0.604578 73.2769C0.74817 73.6472 0.74817 73.6472 0.846416 74.0024C0.726706 73.9625 0.606997 73.9226 0.483659 73.8815C0.443756 73.9613 0.403853 74.0411 0.36274 74.1233C0.322837 73.8041 0.282934 73.4849 0.241821 73.156Z" fill="#FF9E2D"/>
</g>
<defs>
<clipPath id="clip0_128_352">
<rect width="400" height="134.946" fill="white"/>
</clipPath>
</defs>
</svg>
